<?xml version="1.0" standalone="no"?><!DOCTYPE svg PUBLIC "-//W3C//DTD SVG 1.1//EN" "http://www.w3.org/Graphics/SVG/1.1/DTD/svg11.dtd"><svg t="1771908804266" class="icon" viewBox="0 0 1024 1024" version="1.1" xmlns="http://www.w3.org/2000/svg" p-id="5016" xmlns:xlink="http://www.w3.org/1999/xlink" width="200" height="200"><path d="M593.408 670.72v189.3376c0 35.1232-28.4672 63.5904-63.5904 63.5904H212.0192A63.5392 63.5392 0 0 1 148.48 860.0576v-317.7984c0-35.072 28.4672-63.5392 63.5392-63.5392h164.4544l216.8832 192z" fill="#297EFF" p-id="5017"></path><path d="M904.192 88.6272c41.3696 34.816 49.6128 95.2832 18.944 139.776l-237.9264 345.3952a54.4768 54.4768 0 0 1-79.872 10.8544L467.6096 468.992a54.4768 54.4768 0 0 1-3.2256-80.5376l298.8032-294.2464a104.8576 104.8576 0 0 1 141.0048-5.632z" fill="#D0D6DF" p-id="5018"></path></svg>